<svg version="1.1" id="Layer_1" xmlns="http://www.w3.org/2000/svg" xmlns:xlink="http://www.w3.org/1999/xlink" x="0px" y="0px"
	 width="100%" viewBox="0 0 1200 222" enable-background="new 0 0 1200 222" xml:space="preserve">
<path fill="#FEFEFE" opacity="1.000000" stroke="none" 
	d="
M805.000000,223.000000 
	C536.666687,223.000000 268.833344,223.000000 1.000000,223.000000 
	C1.000000,149.000000 1.000000,75.000000 1.000000,1.000000 
	C401.000000,1.000000 801.000000,1.000000 1201.000000,1.000000 
	C1201.000000,75.000000 1201.000000,149.000000 1201.000000,223.000000 
	C1069.166626,223.000000 937.333313,223.000000 805.000000,223.000000 
M1064.500000,7.830521 
	C1044.105103,7.830521 1023.710266,7.830521 1003.474243,7.830521 
	C1003.474243,77.362701 1003.474243,146.411819 1003.474243,215.672607 
	C1004.910339,215.735687 1006.047363,215.824860 1007.184753,215.829865 
	C1034.161865,215.948547 1061.148804,216.516678 1088.111328,215.941986 
	C1098.776855,215.714661 1109.816528,214.298340 1119.951904,211.098785 
	C1170.234619,195.225372 1200.402832,143.900848 1190.828735,91.854073 
	C1183.140381,50.058365 1151.728271,17.565491 1109.754883,10.061714 
	C1095.331299,7.483137 1080.270020,8.471619 1064.500000,7.830521 
M535.168152,211.428833 
	C535.168152,171.371292 535.168152,131.313751 535.168152,90.214340 
	C558.179321,107.457932 580.347900,124.070122 602.736755,140.847412 
	C625.349792,124.234718 647.908569,107.661903 671.189453,90.558540 
	C671.189453,133.309067 671.189453,175.035461 671.189453,216.616547 
	C684.936340,216.616547 698.313660,216.616547 711.615967,216.616547 
	C711.615967,146.685303 711.615967,77.138695 711.615967,6.752551 
	C675.360779,34.833447 639.646423,62.495430 603.878906,90.198563 
	C567.250854,62.407856 530.871277,34.805710 494.084045,6.894224 
	C494.084045,77.295944 494.084045,146.984573 494.084045,216.690308 
	C507.899506,216.690308 521.460388,216.690308 535.168152,216.690308 
	C535.168152,215.057739 535.168152,213.735535 535.168152,211.428833 
M47.958302,35.544445 
	C37.058979,26.430269 26.159660,17.316095 14.791313,7.809712 
	C14.791313,77.711670 14.791313,146.749023 14.791313,215.693039 
	C29.011484,215.693039 42.923134,215.693039 57.191078,215.693039 
	C57.191078,176.501938 57.191078,137.621826 57.191078,98.037094 
	C105.760529,137.557526 153.766937,176.619812 202.274841,216.090164 
	C202.274841,146.057770 202.274841,77.132034 202.274841,8.202000 
	C187.819611,8.202000 173.608124,8.202000 158.976929,8.202000 
	C158.976929,48.263729 158.976929,87.951431 158.976929,128.392365 
	C121.738945,97.247231 85.123260,66.622574 47.958302,35.544445 
M391.566040,207.063461 
	C433.237396,187.340881 457.045563,144.907364 451.845032,99.627670 
	C445.301941,42.658508 394.030792,1.837848 336.522186,7.810870 
	C274.415833,14.261432 231.485260,74.222572 245.550797,134.870544 
	C260.648590,199.969376 328.899750,234.028870 391.566040,207.063461 
M938.500244,217.003204 
	C946.893188,217.003204 955.286133,217.003204 964.323181,217.003204 
	C928.555420,146.604630 893.144104,76.907722 857.434631,6.623913 
	C822.329285,76.835258 787.460205,146.574142 752.358643,216.777954 
	C767.622498,216.777954 782.174438,216.777954 796.658386,216.777954 
	C817.153442,175.629074 837.565247,134.647308 858.266968,93.083435 
	C876.468933,130.725616 894.619629,167.475143 911.928650,204.616928 
	C916.194336,213.770309 920.689819,219.511017 931.516052,217.064209 
	C933.418335,216.634277 935.501160,217.003204 938.500244,217.003204 
z"/>
<path fill="#060909" opacity="1.000000" stroke="none" 
	d="
M1065.000000,7.830520 
	C1080.270020,8.471619 1095.331299,7.483137 1109.754883,10.061714 
	C1151.728271,17.565491 1183.140381,50.058365 1190.828735,91.854073 
	C1200.402832,143.900848 1170.234619,195.225372 1119.951904,211.098785 
	C1109.816528,214.298340 1098.776855,215.714661 1088.111328,215.941986 
	C1061.148804,216.516678 1034.161865,215.948547 1007.184753,215.829865 
	C1006.047363,215.824860 1004.910339,215.735687 1003.474243,215.672607 
	C1003.474243,146.411819 1003.474243,77.362701 1003.474243,7.830521 
	C1023.710266,7.830521 1044.105103,7.830521 1065.000000,7.830520 
M1106.626343,168.277924 
	C1132.857056,160.743912 1149.815063,136.734131 1148.995728,108.289680 
	C1148.258057,82.673683 1129.556152,59.769264 1103.397095,54.908653 
	C1091.116211,52.626724 1078.224365,53.555275 1065.604492,53.204899 
	C1058.507935,53.007874 1051.401367,53.169415 1044.310547,53.169415 
	C1044.310547,92.602806 1044.310547,131.472488 1044.310547,170.491440 
	C1056.438599,170.491440 1068.264771,170.726379 1080.076294,170.413071 
	C1088.684814,170.184723 1097.274048,169.233307 1106.626343,168.277924 
z"/>
<path fill="#050808" opacity="1.000000" stroke="none" 
	d="
M535.168152,211.921082 
	C535.168152,213.735535 535.168152,215.057739 535.168152,216.690308 
	C521.460388,216.690308 507.899506,216.690308 494.084045,216.690308 
	C494.084045,146.984573 494.084045,77.295944 494.084045,6.894224 
	C530.871277,34.805710 567.250854,62.407856 603.878906,90.198563 
	C639.646423,62.495430 675.360779,34.833447 711.615967,6.752551 
	C711.615967,77.138695 711.615967,146.685303 711.615967,216.616547 
	C698.313660,216.616547 684.936340,216.616547 671.189453,216.616547 
	C671.189453,175.035461 671.189453,133.309067 671.189453,90.558540 
	C647.908569,107.661903 625.349792,124.234718 602.736755,140.847412 
	C580.347900,124.070122 558.179321,107.457932 535.168152,90.214340 
	C535.168152,131.313751 535.168152,171.371292 535.168152,211.921082 
z"/>
<path fill="#070A0A" opacity="1.000000" stroke="none" 
	d="
M48.232941,35.771179 
	C85.123260,66.622574 121.738945,97.247231 158.976929,128.392365 
	C158.976929,87.951431 158.976929,48.263729 158.976929,8.202000 
	C173.608124,8.202000 187.819611,8.202000 202.274841,8.202000 
	C202.274841,77.132034 202.274841,146.057770 202.274841,216.090164 
	C153.766937,176.619812 105.760529,137.557526 57.191078,98.037094 
	C57.191078,137.621826 57.191078,176.501938 57.191078,215.693039 
	C42.923134,215.693039 29.011484,215.693039 14.791313,215.693039 
	C14.791313,146.749023 14.791313,77.711670 14.791313,7.809712 
	C26.159660,17.316095 37.058979,26.430269 48.232941,35.771179 
z"/>
<path fill="#060909" opacity="1.000000" stroke="none" 
	d="
M391.224426,207.229645 
	C328.899750,234.028870 260.648590,199.969376 245.550797,134.870544 
	C231.485260,74.222572 274.415833,14.261432 336.522186,7.810870 
	C394.030792,1.837848 445.301941,42.658508 451.845032,99.627670 
	C457.045563,144.907364 433.237396,187.340881 391.224426,207.229645 
M373.477600,51.923950 
	C361.030640,46.614643 348.186218,45.404278 334.898956,47.918262 
	C299.157654,54.680607 276.041473,90.557289 284.111420,126.858925 
	C291.813019,161.503510 328.476013,184.081116 362.870544,175.359940 
	C390.499756,168.354202 410.315765,145.559509 412.841309,117.877663 
	C415.374573,90.111092 400.338470,64.547585 373.477600,51.923950 
z"/>
<path fill="#060909" opacity="1.000000" stroke="none" 
	d="
M938.000427,217.003204 
	C935.501160,217.003204 933.418335,216.634277 931.516052,217.064209 
	C920.689819,219.511017 916.194336,213.770309 911.928650,204.616928 
	C894.619629,167.475143 876.468933,130.725616 858.266968,93.083435 
	C837.565247,134.647308 817.153442,175.629074 796.658386,216.777954 
	C782.174438,216.777954 767.622498,216.777954 752.358643,216.777954 
	C787.460205,146.574142 822.329285,76.835258 857.434631,6.623913 
	C893.144104,76.907722 928.555420,146.604630 964.323181,217.003204 
	C955.286133,217.003204 946.893188,217.003204 938.000427,217.003204 
z"/>
<path fill="#FEFEFE" opacity="1.000000" stroke="none" 
	d="
M1106.249146,168.441071 
	C1097.274048,169.233307 1088.684814,170.184723 1080.076294,170.413071 
	C1068.264771,170.726379 1056.438599,170.491440 1044.310547,170.491440 
	C1044.310547,131.472488 1044.310547,92.602806 1044.310547,53.169415 
	C1051.401367,53.169415 1058.507935,53.007874 1065.604492,53.204899 
	C1078.224365,53.555275 1091.116211,52.626724 1103.397095,54.908653 
	C1129.556152,59.769264 1148.258057,82.673683 1148.995728,108.289680 
	C1149.815063,136.734131 1132.857056,160.743912 1106.249146,168.441071 
z"/>
<path fill="#FEFEFE" opacity="1.000000" stroke="none" 
	d="
M373.838379,52.052216 
	C400.338470,64.547585 415.374573,90.111092 412.841309,117.877663 
	C410.315765,145.559509 390.499756,168.354202 362.870544,175.359940 
	C328.476013,184.081116 291.813019,161.503510 284.111420,126.858925 
	C276.041473,90.557289 299.157654,54.680607 334.898956,47.918262 
	C348.186218,45.404278 361.030640,46.614643 373.838379,52.052216 
z"/>
</svg>